# xmcd
#
# Track frame offsets: 
#        150
#        12802
#        22342
#        35060
#        48340
#        59930
#        71972
#        86755
#        104082
#        121950
#        139780
#        156590
#        179175
#        196330
#        213050
#        224040
#        237535
#        249595
#        265162
#        283560
#
# Disc length: 3964 seconds
#
# Revision: 4
# Processed by: cddbd v1.5.2PL0 Copyright (c) Steve Scherf et al.
# Submitted via: ExactAudioCopy v0.95b3
#
DISCID=4e0f7a14
DTITLE=Marvin Gaye - I Heard It Through The Grapevine [2002 Reissue]
DYEAR=1997
DGENRE=Soul
TTITLE0=Stubborn Kind Of Fellow
TTITLE1=Pride And Joy
TTITLE2=Can I Get A Witness
TTITLE3=How Sweet It Is (To Be Loved By You)
TTITLE4=Little Darling I Need You
TTITLE5=Chained
TTITLE6=I Heard It Through The Grapevine
TTITLE7=What's Going On
TTITLE8=Let's Get It On
TTITLE9=I Want You
TTITLE10=The World Is Rated X
TTITLE11=Ego Tripping Out
TTITLE12=Trouble Man
TTITLE13=Unforgettable
TTITLE14=What's The Matter With You Baby
TTITLE15=It Takes Two
TTITLE16=If This World Were Mine
TTITLE17=Yesterday
TTITLE18=Got To Give It Up (Part One)
TTITLE19=You Are Everything (with Diana Ross)
EXTD=YEAR: 1997
EXTT0=
EXTT1=
EXTT2=
EXTT3=
EXTT4=
EXTT5=
EXTT6=
EXTT7=
EXTT8=
EXTT9=
EXTT10=
EXTT11=
EXTT12=
EXTT13=
EXTT14=
EXTT15=
EXTT16=
EXTT17=
EXTT18=
EXTT19=
PLAYORDER=
